<svg xmlns="http://www.w3.org/2000/svg" width="1200" height="576" viewBox="0 0 1200 576" role="img" aria-label="Contribution history: 912 contributions since Sep 2021">
<title>Contribution history: 912 contributions since Sep 2021</title>
<style>
text{font-family:'Segoe UI', -apple-system, 'Helvetica Neue', Helvetica, Arial, sans-serif;fill:#e7ebf0}
.m{fill:#8b98a9}.fa{fill:#56647a}.mono{font-family:ui-monospace, 'Cascadia Mono', 'SF Mono', Menlo, Consolas, monospace}

@media (prefers-reduced-motion: reduce){*{animation:none!important}}
</style>
<rect x="0.5" y="0.5" width="1199" height="575" rx="12" fill="#0f1722" stroke="#233044"/>
<text x="56" y="64" font-size="21" font-weight="600" letter-spacing="-0.2">Contribution history</text>
<text x="56" y="90" font-size="14" class="m">912 contributions since Sep 2021, private work included, one tower per month</text>
<text x="56" y="150" font-size="14" class="mono m">2026</text>
<rect x="106" y="139" width="180" height="12" rx="2" fill="#f2b33d"/>
<text x="296" y="150" font-size="14">786</text><text x="56" y="184" font-size="14" class="mono m">2025</text>
<rect x="106" y="173" width="20.4" height="12" rx="2" fill="#3f8f89"/>
<text x="136.4" y="184" font-size="14">89</text><text x="56" y="218" font-size="14" class="mono m">2024</text>
<rect x="106" y="207" width="4.8" height="12" rx="2" fill="#3f8f89"/>
<text x="120.8" y="218" font-size="14">21</text><text x="56" y="252" font-size="14" class="mono m">2023</text>
<rect x="106" y="241" width="2.7" height="12" rx="2" fill="#3f8f89"/>
<text x="118.7" y="252" font-size="14">12</text><text x="56" y="286" font-size="14" class="mono m">2022</text>
<rect x="106" y="275" width="2" height="12" rx="2" fill="#3f8f89"/>
<text x="118" y="286" font-size="14">3</text><text x="56" y="320" font-size="14" class="mono m">2021</text>
<rect x="106" y="309" width="2" height="12" rx="2" fill="#3f8f89"/>
<text x="118" y="320" font-size="14">1</text>
<rect x="56" y="530" width="12" height="12" rx="2" fill="#1d2a3b"/><rect x="74" y="530" width="12" height="12" rx="2" fill="#2f5d63"/><rect x="92" y="530" width="12" height="12" rx="2" fill="#3f8f89"/><rect x="110" y="530" width="12" height="12" rx="2" fill="#6fb89a"/><rect x="128" y="530" width="12" height="12" rx="2" fill="#f2b33d"/>
<text x="152" y="540" font-size="12.5" class="fa">fewer to more</text>
<text x="1074.4" y="436.4" font-size="12.5" class="m mono">2021</text><text x="1043.2" y="454.4" font-size="12.5" class="m mono">2022</text><text x="1012" y="472.4" font-size="12.5" class="m mono">2023</text><text x="980.8" y="490.4" font-size="12.5" class="m mono">2024</text><text x="949.6" y="508.4" font-size="12.5" class="m mono">2025</text><text x="918.5" y="526.4" font-size="12.5" class="m mono">2026</text><text x="521" y="333.1" font-size="11.5" text-anchor="middle" class="fa">J</text><text x="552.1" y="351.1" font-size="11.5" text-anchor="middle" class="fa">F</text><text x="583.3" y="369.1" font-size="11.5" text-anchor="middle" class="fa">M</text><text x="614.5" y="387.1" font-size="11.5" text-anchor="middle" class="fa">A</text><text x="645.7" y="405.1" font-size="11.5" text-anchor="middle" class="fa">M</text><text x="676.9" y="423.1" font-size="11.5" text-anchor="middle" class="fa">J</text><text x="708" y="441.1" font-size="11.5" text-anchor="middle" class="fa">J</text><text x="739.2" y="459.1" font-size="11.5" text-anchor="middle" class="fa">A</text><text x="770.4" y="477.1" font-size="11.5" text-anchor="middle" class="fa">S</text><text x="801.6" y="495.1" font-size="11.5" text-anchor="middle" class="fa">O</text><text x="832.7" y="513.1" font-size="11.5" text-anchor="middle" class="fa">N</text><text x="863.9" y="531.1" font-size="11.5" text-anchor="middle" class="fa">D</text><polygon points="675.3,219 697.7,232 675.3,245 652.8,232" fill="#172231" stroke="#223047" stroke-width="0.8"/><g><title>Jan 2023: 3 contributions</title><polygon points="621.7,250 644.1,263 644.1,249.5 621.7,236.6" fill="#1d3a3d"/><polygon points="666.6,250 644.1,263 644.1,249.5 666.6,236.6" fill="#264a4f"/><polygon points="644.1,223.6 666.6,236.6 644.1,249.5 621.7,236.6" fill="#2f5d63"/></g><polygon points="706.5,237 728.9,250 706.5,263 684,250" fill="#172231" stroke="#223047" stroke-width="0.8"/><polygon points="612.9,255 635.4,268 612.9,281 590.5,268" fill="#172231" stroke="#223047" stroke-width="0.8"/><g><title>Feb 2023: 3 contributions</title><polygon points="652.8,268 675.3,281 675.3,267.5 652.8,254.6" fill="#1d3a3d"/><polygon points="697.7,268 675.3,281 675.3,267.5 697.7,254.6" fill="#264a4f"/><polygon points="675.3,241.6 697.7,254.6 675.3,267.5 652.8,254.6" fill="#2f5d63"/></g><polygon points="737.6,255 760.1,268 737.6,281 715.2,268" fill="#172231" stroke="#223047" stroke-width="0.8"/><g><title>Jan 2025: 6 contributions</title><polygon points="559.3,286 581.8,299 581.8,280 559.3,267" fill="#1d3a3d"/><polygon points="604.2,286 581.8,299 581.8,280 604.2,267" fill="#264a4f"/><polygon points="581.8,254.1 604.2,267 581.8,280 559.3,267" fill="#2f5d63"/></g><polygon points="644.1,273 666.6,286 644.1,299 621.7,286" fill="#172231" stroke="#223047" stroke-width="0.8"/><polygon points="706.5,273 728.9,286 706.5,299 684,286" fill="#172231" stroke="#223047" stroke-width="0.8"/><polygon points="768.8,273 791.3,286 768.8,299 746.4,286" fill="#172231" stroke="#223047" stroke-width="0.8"/><polygon points="550.6,291 573,304 550.6,317 528.1,304" fill="#172231" stroke="#223047" stroke-width="0.8"/><g><title>Feb 2025: 16 contributions</title><polygon points="590.5,304 612.9,317 612.9,286 590.5,273" fill="#1d3a3d"/><polygon points="635.4,304 612.9,317 612.9,286 635.4,273" fill="#264a4f"/><polygon points="612.9,260.1 635.4,273 612.9,286 590.5,273" fill="#2f5d63"/></g><g><title>Mar 2024: 1 contribution</title><polygon points="652.8,304 675.3,317 675.3,309.2 652.8,296.3" fill="#1d3a3d"/><polygon points="697.7,304 675.3,317 675.3,309.2 697.7,296.3" fill="#264a4f"/><polygon points="675.3,283.3 697.7,296.3 675.3,309.2 652.8,296.3" fill="#2f5d63"/></g><polygon points="737.6,291 760.1,304 737.6,317 715.2,304" fill="#172231" stroke="#223047" stroke-width="0.8"/><polygon points="800,291 822.4,304 800,317 777.6,304" fill="#172231" stroke="#223047" stroke-width="0.8"/><polygon points="581.8,309 604.2,322 581.8,335 559.3,322" fill="#172231" stroke="#223047" stroke-width="0.8"/><g><title>Mar 2025: 6 contributions</title><polygon points="621.7,322 644.1,335 644.1,316 621.7,303" fill="#1d3a3d"/><polygon points="666.6,322 644.1,335 644.1,316 666.6,303" fill="#264a4f"/><polygon points="644.1,290.1 666.6,303 644.1,316 621.7,303" fill="#2f5d63"/></g><polygon points="706.5,309 728.9,322 706.5,335 684,322" fill="#172231" stroke="#223047" stroke-width="0.8"/><polygon points="768.8,309 791.3,322 768.8,335 746.4,322" fill="#172231" stroke="#223047" stroke-width="0.8"/><polygon points="831.2,309 853.6,322 831.2,335 808.7,322" fill="#172231" stroke="#223047" stroke-width="0.8"/><g><title>Mar 2026: 1 contribution</title><polygon points="590.5,340 612.9,353 612.9,345.2 590.5,332.3" fill="#1d3a3d"/><polygon points="635.4,340 612.9,353 612.9,345.2 635.4,332.3" fill="#264a4f"/><polygon points="612.9,319.3 635.4,332.3 612.9,345.2 590.5,332.3" fill="#2f5d63"/></g><g><title>Apr 2025: 42 contributions</title><polygon points="652.8,340 675.3,353 675.3,302.8 652.8,289.8" fill="#275955"/><polygon points="697.7,340 675.3,353 675.3,302.8 697.7,289.8" fill="#32726e"/><polygon points="675.3,276.8 697.7,289.8 675.3,302.8 652.8,289.8" fill="#3f8f89"/></g><polygon points="737.6,327 760.1,340 737.6,353 715.2,340" fill="#172231" stroke="#223047" stroke-width="0.8"/><polygon points="800,327 822.4,340 800,353 777.6,340" fill="#172231" stroke="#223047" stroke-width="0.8"/><g><title>Jul 2022: 2 contributions</title><polygon points="839.9,340 862.4,353 862.4,342 839.9,329" fill="#1d3a3d"/><polygon points="884.8,340 862.4,353 862.4,342 884.8,329" fill="#264a4f"/><polygon points="862.4,316.1 884.8,329 862.4,342 839.9,329" fill="#2f5d63"/></g><g><title>Apr 2026: 10 contributions</title><polygon points="621.7,358 644.1,371 644.1,346.5 621.7,333.5" fill="#1d3a3d"/><polygon points="666.6,358 644.1,371 644.1,346.5 666.6,333.5" fill="#264a4f"/><polygon points="644.1,320.5 666.6,333.5 644.1,346.5 621.7,333.5" fill="#2f5d63"/></g><g><title>May 2025: 17 contributions</title><polygon points="684,358 706.5,371 706.5,339 684,326.1" fill="#1d3a3d"/><polygon points="728.9,358 706.5,371 706.5,339 728.9,326.1" fill="#264a4f"/><polygon points="706.5,313.1 728.9,326.1 706.5,339 684,326.1" fill="#2f5d63"/></g><polygon points="768.8,345 791.3,358 768.8,371 746.4,358" fill="#172231" stroke="#223047" stroke-width="0.8"/><polygon points="831.2,345 853.6,358 831.2,371 808.7,358" fill="#172231" stroke="#223047" stroke-width="0.8"/><polygon points="893.5,345 916,358 893.5,371 871.1,358" fill="#172231" stroke="#223047" stroke-width="0.8"/><g><title>Sep 2021: 1 contribution</title><polygon points="933.4,358 955.9,371 955.9,363.2 933.4,350.3" fill="#1d3a3d"/><polygon points="978.3,358 955.9,371 955.9,363.2 978.3,350.3" fill="#264a4f"/><polygon points="955.9,337.3 978.3,350.3 955.9,363.2 933.4,350.3" fill="#2f5d63"/></g><g><title>May 2026: 74 contributions</title><polygon points="652.8,376 675.3,389 675.3,322.3 652.8,309.4" fill="#275955"/><polygon points="697.7,376 675.3,389 675.3,322.3 697.7,309.4" fill="#32726e"/><polygon points="675.3,296.4 697.7,309.4 675.3,322.3 652.8,309.4" fill="#3f8f89"/></g><g><title>Jun 2025: 2 contributions</title><polygon points="715.2,376 737.6,389 737.6,378 715.2,365" fill="#1d3a3d"/><polygon points="760.1,376 737.6,389 737.6,378 760.1,365" fill="#264a4f"/><polygon points="737.6,352.1 760.1,365 737.6,378 715.2,365" fill="#2f5d63"/></g><polygon points="800,363 822.4,376 800,389 777.6,376" fill="#172231" stroke="#223047" stroke-width="0.8"/><g><title>Aug 2023: 2 contributions</title><polygon points="839.9,376 862.4,389 862.4,378 839.9,365" fill="#1d3a3d"/><polygon points="884.8,376 862.4,389 862.4,378 884.8,365" fill="#264a4f"/><polygon points="862.4,352.1 884.8,365 862.4,378 839.9,365" fill="#2f5d63"/></g><polygon points="924.7,363 947.2,376 924.7,389 902.3,376" fill="#172231" stroke="#223047" stroke-width="0.8"/><polygon points="987.1,363 1009.5,376 987.1,389 964.6,376" fill="#172231" stroke="#223047" stroke-width="0.8"/><g><title>Jun 2026: 375 contributions</title><polygon points="684,394 706.5,407 706.5,257 684,244" fill="#966f26"/><polygon points="728.9,394 706.5,407 706.5,257 728.9,244" fill="#c28f31"/><polygon points="706.5,231 728.9,244 706.5,257 684,244" fill="#f2b33d"/></g><polygon points="768.8,381 791.3,394 768.8,407 746.4,394" fill="#172231" stroke="#223047" stroke-width="0.8"/><polygon points="831.2,381 853.6,394 831.2,407 808.7,394" fill="#172231" stroke="#223047" stroke-width="0.8"/><g><title>Sep 2023: 1 contribution</title><polygon points="871.1,394 893.5,407 893.5,399.2 871.1,386.3" fill="#1d3a3d"/><polygon points="916,394 893.5,407 893.5,399.2 916,386.3" fill="#264a4f"/><polygon points="893.5,373.3 916,386.3 893.5,399.2 871.1,386.3" fill="#2f5d63"/></g><g><title>Oct 2022: 1 contribution</title><polygon points="933.4,394 955.9,407 955.9,399.2 933.4,386.3" fill="#1d3a3d"/><polygon points="978.3,394 955.9,407 955.9,399.2 978.3,386.3" fill="#264a4f"/><polygon points="955.9,373.3 978.3,386.3 955.9,399.2 933.4,386.3" fill="#2f5d63"/></g><polygon points="1018.2,381 1040.7,394 1018.2,407 995.8,394" fill="#172231" stroke="#223047" stroke-width="0.8"/><g><title>Jul 2026: 100 contributions</title><polygon points="715.2,412 737.6,425 737.6,347.5 715.2,334.5" fill="#275955"/><polygon points="760.1,412 737.6,425 737.6,347.5 760.1,334.5" fill="#32726e"/><polygon points="737.6,321.6 760.1,334.5 737.6,347.5 715.2,334.5" fill="#3f8f89"/></g><polygon points="800,399 822.4,412 800,425 777.6,412" fill="#172231" stroke="#223047" stroke-width="0.8"/><g><title>Sep 2024: 4 contributions</title><polygon points="839.9,412 862.4,425 862.4,409.5 839.9,396.5" fill="#1d3a3d"/><polygon points="884.8,412 862.4,425 862.4,409.5 884.8,396.5" fill="#264a4f"/><polygon points="862.4,383.5 884.8,396.5 862.4,409.5 839.9,396.5" fill="#2f5d63"/></g><g><title>Oct 2023: 2 contributions</title><polygon points="902.3,412 924.7,425 924.7,414 902.3,401" fill="#1d3a3d"/><polygon points="947.2,412 924.7,425 924.7,414 947.2,401" fill="#264a4f"/><polygon points="924.7,388.1 947.2,401 924.7,414 902.3,401" fill="#2f5d63"/></g><polygon points="987.1,399 1009.5,412 987.1,425 964.6,412" fill="#172231" stroke="#223047" stroke-width="0.8"/><polygon points="1049.4,399 1071.9,412 1049.4,425 1027,412" fill="#172231" stroke="#223047" stroke-width="0.8"/><g><title>Aug 2026: 148 contributions</title><polygon points="746.4,430 768.8,443 768.8,348.7 746.4,335.8" fill="#275955"/><polygon points="791.3,430 768.8,443 768.8,348.7 791.3,335.8" fill="#32726e"/><polygon points="768.8,322.8 791.3,335.8 768.8,348.7 746.4,335.8" fill="#3f8f89"/></g><polygon points="831.2,417 853.6,430 831.2,443 808.7,430" fill="#172231" stroke="#223047" stroke-width="0.8"/><g><title>Oct 2024: 2 contributions</title><polygon points="871.1,430 893.5,443 893.5,432 871.1,419" fill="#1d3a3d"/><polygon points="916,430 893.5,443 893.5,432 916,419" fill="#264a4f"/><polygon points="893.5,406.1 916,419 893.5,432 871.1,419" fill="#2f5d63"/></g><polygon points="955.9,417 978.3,430 955.9,443 933.4,430" fill="#172231" stroke="#223047" stroke-width="0.8"/><polygon points="1018.2,417 1040.7,430 1018.2,443 995.8,430" fill="#172231" stroke="#223047" stroke-width="0.8"/><g><title>Sep 2026: 78 contributions</title><polygon points="777.6,448 800,461 800,392.5 777.6,379.6" fill="#275955"/><polygon points="822.4,448 800,461 800,392.5 822.4,379.6" fill="#32726e"/><polygon points="800,366.6 822.4,379.6 800,392.5 777.6,379.6" fill="#3f8f89"/></g><polygon points="862.4,435 884.8,448 862.4,461 839.9,448" fill="#172231" stroke="#223047" stroke-width="0.8"/><polygon points="924.7,435 947.2,448 924.7,461 902.3,448" fill="#172231" stroke="#223047" stroke-width="0.8"/><g><title>Dec 2023: 1 contribution</title><polygon points="964.6,448 987.1,461 987.1,453.2 964.6,440.3" fill="#1d3a3d"/><polygon points="1009.5,448 987.1,461 987.1,453.2 1009.5,440.3" fill="#264a4f"/><polygon points="987.1,427.3 1009.5,440.3 987.1,453.2 964.6,440.3" fill="#2f5d63"/></g><polygon points="893.5,453 916,466 893.5,479 871.1,466" fill="#172231" stroke="#223047" stroke-width="0.8"/><g><title>Dec 2024: 14 contributions</title><polygon points="933.4,466 955.9,479 955.9,450 933.4,437" fill="#1d3a3d"/><polygon points="978.3,466 955.9,479 955.9,450 978.3,437" fill="#264a4f"/><polygon points="955.9,424.1 978.3,437 955.9,450 933.4,437" fill="#2f5d63"/></g><polygon points="924.7,471 947.2,484 924.7,497 902.3,484" fill="#172231" stroke="#223047" stroke-width="0.8"/><defs><linearGradient id="beam" x1="0" y1="1" x2="0" y2="0">
<stop offset="0" stop-color="#f2b33d" stop-opacity="0.2"/><stop offset="1" stop-color="#f2b33d" stop-opacity="0"/></linearGradient></defs>
<g opacity="0"><polygon points="712.7,192.4 513.2,307.6 513.2,133.6 712.7,18.4" fill="url(#beam)"/><polyline points="712.7,192.4 513.2,307.6" fill="none" stroke="#f2b33d" stroke-width="1.5"/>
<animateTransform attributeName="transform" type="translate" values="0,0;374.1,216" dur="7s" repeatCount="indefinite"/>
<animate attributeName="opacity" values="0;1;1;0" keyTimes="0;0.08;0.9;1" dur="7s" repeatCount="indefinite"/></g><rect x="676" y="223" width="60.9" height="192" fill="none" stroke="#f2b33d" stroke-width="1.6"/>
<rect x="676" y="203" width="138.1" height="20" fill="#f2b33d"/>
<text x="683" y="217" font-size="11.5" class="mono" style="fill:#1a1204">peak jun 2026 375</text>
</svg>